<svg width="753" height="753" viewBox="0 0 753 753" fill="none" xmlns="http://www.w3.org/2000/svg">
<g clip-path="url(#clip0_198_1328)">
<path d="M352.42 505.39C352.42 505.39 390.08 539.2 415 588.21C415 588.21 397.49 514.44 407.77 484.33L352.42 505.39Z" fill="#FFCA28"/>
<path d="M258.7 443.801C258.7 443.801 230.33 485.691 185.16 517.071C185.16 517.071 255.87 489.681 287.09 495.771L258.7 443.801Z" fill="#FFCA28"/>
<path d="M338.7 287.06C349.9 269.7 366.64 243.77 366.49 206.62C375.82 266.35 387.93 221.11 399.87 164C395.87 231.08 396.49 249.88 408.42 302.86L338.7 287.06Z" fill="#FFCA28"/>
<path d="M147 247.41C234.44 308.23 240.52 310.41 218.76 261.99C262.05 311.69 302.95 323.14 322.54 311.34L250.94 388.58C245.33 360.96 223.26 331.58 184.54 316.65C234.44 323.92 185.31 280.15 147 247.41Z" fill="#FFCA28"/>
<path d="M434.12 426.469L423.35 328.839C458.35 337.839 493.09 337.909 537.72 325.369C483.47 350.169 482.389 371.319 605.979 346.919C533.879 365.149 441.03 400.519 434.12 426.469Z" fill="#FFCA28"/>
<path d="M266.33 467.56C232.85 553.89 348.5 588.83 388.33 506.5C437.64 562.75 587.24 435.69 456.25 367.82C505.49 319.82 429.43 230.42 366.31 284.16C343.72 231.16 235.41 241.36 264.7 331.37C149.27 366.34 191.54 479.69 266.33 467.56ZM331.33 453.16C332.11 454.16 347.87 475.38 364.96 471.53C382.32 467.62 387.81 432.38 387.81 432.38C387.81 432.38 402.33 473.38 373.07 484.67C344.26 495.76 331.99 454.74 331.34 453.16H331.33ZM323.52 360.16C319.27 300.62 399.19 288.48 393.11 376.24C385.59 315.85 328.39 320.11 332.81 378.96C292.33 360.96 274.24 391.37 290.91 421.42C258.35 392.29 265.18 341.09 323.54 360.2L323.52 360.16Z" fill="#F57C00"/>
<path d="M274.71 460.01C244.47 538.01 348.16 565.14 385.42 502.19C445.35 523.48 523 418.4 444.49 370.83C488.49 327.92 420.28 241.39 363.87 289.42C343.87 242.6 246.76 256.95 273.21 338.23C169.54 369.69 208.25 470.74 274.71 460.01ZM323.96 437.24C324.67 438.13 347.63 467 362.96 463.56C378.48 460.07 386.87 423.05 386.87 423.05C447.39 483.07 342.02 539.94 323.96 437.24ZM318.96 356.81C301.16 269.2 417.55 273.81 394.85 395.9C376.57 338.35 333.46 319.28 335.56 386.5C294.07 368.06 279.79 398.6 301.45 437.63C229.31 386.99 267.59 334.95 318.95 356.81H318.96Z" fill="#FFA000"/>
<path d="M306.152 298.859C321.777 290.767 330.947 277.456 326.634 269.129C322.321 260.802 306.159 260.611 290.534 268.703C274.909 276.796 265.739 290.106 270.052 298.433C274.365 306.761 290.527 306.951 306.152 298.859Z" fill="#FFCA28"/>
<path d="M250.986 406.448C251.226 385.866 241.169 369.06 228.523 368.913C215.877 368.765 205.429 385.33 205.189 405.912C204.948 426.494 215.005 443.3 227.651 443.447C240.298 443.595 250.745 427.03 250.986 406.448Z" fill="#FFCA28"/>
<path d="M290.829 323.812C296.142 323.333 300.151 319.632 299.783 315.545C299.415 311.458 294.809 308.533 289.495 309.012C284.181 309.491 280.173 313.192 280.541 317.279C280.909 321.366 285.515 324.291 290.829 323.812Z" fill="#FFCA28"/>
<path d="M443.127 312.427C449.25 302.963 444.158 288.785 431.753 280.76C419.349 272.736 404.33 273.903 398.207 283.367C392.085 292.832 397.177 307.009 409.581 315.034C421.985 323.058 437.004 321.891 443.127 312.427Z" fill="#FFCA28"/>
<path d="M456.751 323.629C461.2 316.752 459.803 307.94 453.631 303.948C447.459 299.955 438.849 302.293 434.4 309.169C429.951 316.046 431.348 324.858 437.52 328.851C443.692 332.844 452.302 330.506 456.751 323.629Z" fill="#FFCA28"/>
</g>
<defs>
<clipPath id="clip0_198_1328">
<rect width="458.99" height="424.21" fill="white" transform="translate(147 164)"/>
</clipPath>
</defs>
</svg>
