<svg width="753" height="753" viewBox="0 0 753 753" fill="none" xmlns="http://www.w3.org/2000/svg">
<g clip-path="url(#clip0_198_1402)">
<path d="M522.73 401.969C539.06 366.969 492.41 366.739 497.96 400.019C370.34 459.389 563.62 510.149 522.73 401.969Z" fill="#F57C00"/>
<path d="M449.951 495.639C445.531 485.099 419.571 490.999 421.951 504.639C424.331 518.279 457.801 514.329 449.951 495.639Z" fill="#F57C00"/>
<path d="M464.189 271.241C419.189 279.081 462.72 221.371 473.56 253.181C546.65 304.051 501.729 349.151 464.189 271.241Z" fill="#F57C00"/>
<path d="M374.039 237.6C366.569 238.92 354.559 219.87 370.769 219.03C386.979 218.19 387.039 235.33 374.039 237.6Z" fill="#F57C00"/>
<path d="M292.94 253.71C340.2 289.24 271.46 333.85 257.45 306.8C237.7 326.33 223.15 313.5 240.17 292.26C212.53 265.12 258.91 225.56 276.25 242.5C276.25 242.5 304.6 224.9 292.94 253.71Z" fill="#F57C00"/>
<path d="M242.27 412.091C239.01 393.511 222.77 396.371 225.27 410.521C227.77 424.671 245.54 430.661 242.27 412.091Z" fill="#F57C00"/>
<path d="M299.93 471.03C417.68 467.53 347.93 593.03 284.07 497.49C219.59 510.29 286.16 424.31 299.93 471.03Z" fill="#F57C00"/>
<path d="M274.814 285.858C284.647 279.875 288.159 267.697 282.658 258.657C277.157 249.617 264.727 247.139 254.895 253.122C245.063 259.105 241.551 271.283 247.051 280.323C252.552 289.363 264.982 291.841 274.814 285.858Z" fill="#FFA000"/>
<path d="M351.35 513.726C354.776 506.5 344.726 494.56 328.902 487.056C313.078 479.553 297.472 479.327 294.046 486.553C290.619 493.779 300.67 505.72 316.494 513.223C332.318 520.727 347.923 520.952 351.35 513.726Z" fill="#FFA000"/>
<path d="M517.525 436.89C517.668 424.669 505.988 414.624 491.436 414.453C476.884 414.283 464.972 424.053 464.829 436.274C464.686 448.495 476.367 458.54 490.919 458.71C505.47 458.881 517.383 449.111 517.525 436.89Z" fill="#FFA000"/>
</g>
<defs>
<clipPath id="clip0_198_1402">
<rect width="303.53" height="314.47" fill="white" transform="translate(225 219)"/>
</clipPath>
</defs>
</svg>
