<svg width="753" height="753" viewBox="0 0 753 753" fill="none" xmlns="http://www.w3.org/2000/svg">
<g clip-path="url(#clip0_198_1342)">
<path d="M449.45 546.83C484.45 568.7 502.05 583.12 530.76 616.51C509.47 578.83 502.9 557.57 491.15 516.08C491.15 516.08 484.95 555.4 449.45 546.83Z" fill="#FFCA28"/>
<path d="M208.26 279.17C187.56 243.41 158.02 210.06 125.59 180.25C169.52 209.09 199.29 225.39 240.38 238.52C240.38 238.52 200.87 243.41 208.26 279.17Z" fill="#FFCA28"/>
<path d="M161.83 401.39C135.33 387.3 112.18 381.27 82.1396 375.57C117.79 376.09 133.58 371.39 160.86 363.24C160.86 363.24 142.3 382.01 161.83 401.39Z" fill="#FFCA28"/>
<path d="M577.65 352.961C603.31 368.531 626.07 375.871 655.74 383.281C620.19 380.721 604.15 384.511 576.45 391.101C576.47 391.101 596.07 373.421 577.65 352.961Z" fill="#FFCA28"/>
<path d="M370.73 600.689C360.31 623.599 354.28 649.279 351.06 674.749C349.66 644.829 347.06 625.839 338.86 603.359C338.86 603.359 355.52 618.019 370.73 600.689Z" fill="#FFCA28"/>
<path d="M440.49 135.14C460.15 119.43 477.14 99.26 491.54 78C479.25 105.32 472.95 123.42 470.11 147.19C470.11 147.19 461.89 126.58 440.49 135.14Z" fill="#FFCA28"/>
<path d="M536.53 304.48C565.21 274.74 582.96 260.58 621.59 239.48C580.31 252.48 558.15 254.48 515.12 257.35C515.12 257.3 552.29 271.54 536.53 304.48Z" fill="#FFCA28"/>
<path d="M194.97 494.819C153.97 500.299 111.97 514.889 71.9697 533.489C115.38 503.889 141.81 482.589 169.61 449.619C169.65 449.619 159.09 488.009 194.97 494.819Z" fill="#FFCA28"/>
<path d="M606.14 301.18C606.14 301.18 644.86 279.95 663.3 270.12C680.05 261.18 688.02 283.64 671.11 287.66C651.7 292.26 606.14 301.18 606.14 301.18Z" fill="#F57C00"/>
<path d="M429.46 581.801C429.46 581.801 441.67 608.801 447.32 621.701C452.45 633.391 438.5 638.701 436.39 626.961C433.98 613.471 429.46 581.801 429.46 581.801Z" fill="#F57C00"/>
<path d="M160.08 336.409C160.08 336.409 130.47 334.729 116.44 333.789C103.71 332.919 105.44 318.089 116.84 321.659C129.92 325.759 160.08 336.409 160.08 336.409Z" fill="#F57C00"/>
<path d="M507.86 210.96C507.86 210.96 526.56 187.96 535.54 177.13C543.69 167.31 554.7 177.4 545.13 184.55C534.15 192.76 507.86 210.96 507.86 210.96Z" fill="#F57C00"/>
<path d="M326.65 163.209C326.65 163.209 308.01 129.019 299.76 112.439C288.3 89.4394 322.58 83.1794 324.23 106.909C325.94 131.199 326.65 163.209 326.65 163.209Z" fill="#F57C00"/>
<path d="M259.099 556.961C259.099 556.961 233.43 609.881 225.54 627.151C217.47 644.831 196.639 631.271 209.469 616.001C222.299 600.731 259.099 556.961 259.099 556.961Z" fill="#F57C00"/>
<path d="M514.11 390.96C578.22 350.1 518.99 252.38 437.28 302.29C463.57 220.94 355.52 138.6 291.08 257.05C250.98 227.65 191.32 264.68 250.92 340.78C130.86 314.35 163.92 552.22 305.4 480.27C299.4 576.02 465.15 581.95 447.34 483.75C499.85 514.96 558.26 432.44 514.11 390.96ZM386.11 448.42C404.56 515.96 304.52 519.35 331.66 431.42C291.51 487.17 197.98 403.23 304.3 370.42C245.6 290.84 386.04 221.19 412.45 337.62C459.45 345.42 436.38 383.74 436.38 383.74C487.35 384.35 448.65 499.18 386.06 448.46L386.11 448.42Z" fill="#F57C00"/>
<path d="M302.54 220.14C341.44 145.91 455.23 145.05 443.71 232.94C444.29 183.85 355.41 150.17 302.54 220.14Z" fill="#F57C00"/>
<path d="M479.65 501.279C557.89 489.169 568.22 442.469 541.38 406.789C591.37 437.559 573.65 495.639 479.65 501.279Z" fill="#F57C00"/>
<path d="M300.09 513.82C307.79 575.46 363.45 623.47 409.47 560.48C383.2 579.9 324.21 592.27 300.09 513.82Z" fill="#F57C00"/>
<path d="M504.54 375.346C522.487 368.931 531.173 347.326 523.939 327.091C516.706 306.855 496.293 295.652 478.346 302.067C460.399 308.483 451.713 330.088 458.947 350.323C466.18 370.559 486.593 381.762 504.54 375.346Z" fill="#FFA000"/>
<path d="M427.707 257.24C433.375 239.043 415.062 217.156 386.804 208.355C358.546 199.554 331.043 207.17 325.376 225.368C319.708 243.565 338.021 265.451 366.279 274.253C394.537 283.054 422.039 275.437 427.707 257.24Z" fill="#FFA000"/>
<path d="M516.737 452.799C525.56 433.204 520.563 411.849 505.576 405.101C490.589 398.353 471.288 408.768 462.465 428.362C453.642 447.957 458.639 469.312 473.626 476.06C488.613 482.808 507.915 472.394 516.737 452.799Z" fill="#FFA000"/>
<path d="M407.594 544.695C430.392 535.65 444.387 517.011 438.854 503.063C433.32 489.115 410.353 485.14 387.554 494.185C364.756 503.23 350.76 521.87 356.294 535.818C361.828 549.765 384.795 553.74 407.594 544.695Z" fill="#FFA000"/>
<path d="M274.537 313.428C291.567 306.676 300.323 288.47 294.096 272.765C287.868 257.061 269.015 249.804 251.986 256.556C234.956 263.309 226.2 281.514 232.427 297.219C238.655 312.924 257.508 320.181 274.537 313.428Z" fill="#FFA000"/>
<path d="M503.01 388.85C502.86 401.18 493.73 411.07 482.6 410.94C471.47 410.81 462.6 400.71 462.72 388.38C462.84 376.05 472 366.17 483.12 366.3C494.24 366.43 503.15 376.53 503.01 388.85Z" fill="#FFA000"/>
<path d="M332.904 274.563C343.431 268.148 347.271 255.248 341.483 245.75C335.694 236.252 322.468 233.752 311.942 240.168C301.416 246.583 297.575 259.483 303.364 268.981C309.153 278.479 322.378 280.978 332.904 274.563Z" fill="#FFA000"/>
<path d="M277.119 349.638C285.979 346.812 289.75 333.823 285.541 320.627C281.333 307.43 270.737 299.024 261.877 301.85C253.016 304.676 249.245 317.665 253.454 330.861C257.663 344.057 268.258 352.464 277.119 349.638Z" fill="#FFA000"/>
<path d="M346.838 520.401C352.259 514.606 351.322 504.919 344.744 498.765C338.166 492.612 328.438 492.321 323.016 498.117C317.594 503.913 318.532 513.6 325.11 519.753C331.688 525.907 341.416 526.197 346.838 520.401Z" fill="#FFA000"/>
<path d="M255.208 393.452C266.591 381.284 266.648 362.84 255.334 352.257C244.021 341.674 225.622 342.959 214.239 355.128C202.857 367.296 202.8 385.739 214.113 396.322C225.427 406.905 243.825 405.62 255.208 393.452Z" fill="#FFA000"/>
<path d="M284.526 475.914C288.532 465.537 281.292 453.077 268.355 448.082C255.418 443.087 241.683 447.45 237.676 457.827C233.67 468.203 240.911 480.664 253.848 485.659C266.785 490.653 280.52 486.291 284.526 475.914Z" fill="#FFA000"/>
<path d="M444.325 489.841C444.421 481.663 438.517 474.962 431.139 474.876C423.761 474.79 417.702 481.35 417.607 489.529C417.511 497.708 423.415 504.408 430.793 504.494C438.171 504.58 444.229 498.02 444.325 489.841Z" fill="#FFA000"/>
<path d="M232.937 474.303C250.062 470.261 257.844 441.136 250.318 409.251C242.793 377.365 222.809 354.794 205.684 358.836C188.559 362.878 180.777 392.003 188.302 423.888C195.828 455.773 215.811 478.345 232.937 474.303Z" fill="#FFA000"/>
<path d="M235.498 397.845C249.682 383.936 252.949 364.266 242.794 353.911C232.64 343.556 212.91 346.437 198.726 360.346C184.542 374.256 181.276 393.926 191.43 404.28C201.585 414.635 221.315 411.754 235.498 397.845Z" fill="#FBC02D"/>
<path d="M413.116 234.963C413.286 220.406 395.194 208.392 372.707 208.129C350.219 207.866 331.852 219.454 331.681 234.011C331.511 248.568 349.603 260.582 372.09 260.845C394.578 261.108 412.945 249.521 413.116 234.963Z" fill="#FBC02D"/>
<path d="M266.811 293.463C278.839 284.343 283.606 270.379 277.46 262.272C271.314 254.166 256.581 254.987 244.553 264.107C232.526 273.226 227.758 287.191 233.904 295.297C240.051 303.403 254.784 302.582 266.811 293.463Z" fill="#FBC02D"/>
<path d="M486.454 332.786C497.993 327.704 504.024 316.037 499.923 306.727C495.823 297.417 483.144 293.989 471.605 299.071C460.066 304.154 454.036 315.821 458.136 325.131C462.237 334.441 474.915 337.868 486.454 332.786Z" fill="#FBC02D"/>
<path d="M337.07 260.96C334.86 264.96 328.79 265.7 323.51 262.74C318.23 259.78 315.73 254.19 317.94 250.24C320.15 246.29 326.22 245.51 331.5 248.47C336.78 251.43 339.28 256.96 337.07 260.96Z" fill="#FBC02D"/>
</g>
<defs>
<clipPath id="clip0_198_1342">
<rect width="608.5" height="596.75" fill="white" transform="translate(72 78)"/>
</clipPath>
</defs>
</svg>
