<svg width="753" height="753" viewBox="0 0 753 753" fill="none" xmlns="http://www.w3.org/2000/svg">
<g clip-path="url(#clip0_198_1303)">
<path d="M422.96 390.74L413.73 409.95C422.19 409.87 430.5 410.44 443.95 413.31C434.49 405.6 428.63 399.85 422.96 390.74Z" fill="#FFCA28"/>
<path d="M404.39 351.7C401.06 342.7 402.62 325.7 404.86 312C397.97 324.26 391.22 333.15 379.12 342.54L404.39 351.7Z" fill="#FFCA28"/>
<path d="M349.49 393.03L352.76 362.91C341 367.54 330.31 368.55 310.01 368.32C330.15 375.21 344.49 382.49 349.49 393.03Z" fill="#FFCA28"/>
<path d="M347.11 370.249C347.11 370.249 310.03 341.119 347.69 319.949C385.35 298.779 390.58 339.619 390.58 339.619C390.58 339.619 433.9 322.159 440.72 353.379C447.54 384.599 420.99 402.249 420.99 402.249C420.99 402.249 435.04 427.249 421.78 436.989C407.39 447.599 385.4 431.769 385.4 431.769C385.4 431.769 346.25 457.069 326.02 426.389C307.31 398.019 347.11 370.249 347.11 370.249Z" fill="#F57C00"/>
<path d="M352.08 371.37C352.08 371.37 328.01 344.45 352.58 328.37C377.15 312.29 389.27 345.19 389.27 345.19C389.27 345.19 426.34 330.25 432.18 356.96C438.02 383.67 415.29 398.78 415.29 398.78C415.29 398.78 422.59 415.31 411.24 423.67C398.93 432.75 384.84 424.05 384.84 424.05C384.84 424.05 351.34 445.69 334.03 419.44C318.02 395.12 352.08 371.37 352.08 371.37Z" fill="#FFA000"/>
<path d="M388.49 392.29C388.49 392.29 371.64 423.23 359.37 396.74C347.1 370.25 380.63 372.6 380.63 372.6C390.58 339.62 424.56 390.68 388.49 392.29Z" fill="#FFF176"/>
<path d="M379.06 327.009C380.55 332.499 374.49 338.919 365.49 341.369C356.49 343.819 348.04 341.369 346.55 335.849C345.06 330.329 351.12 323.939 360.09 321.499C369.06 319.059 377.56 321.519 379.06 327.009Z" fill="#FBC02D"/>
<path d="M433.92 365.599C428.87 370.289 420.2 369.169 414.56 363.099C408.92 357.029 408.46 348.309 413.56 343.619C418.66 338.929 427.28 340.039 432.92 346.109C438.56 352.179 438.97 360.909 433.92 365.599Z" fill="#FBC02D"/>
<path d="M346.19 344.271C347.499 344.624 348.674 345.355 349.57 346.371C350.466 347.388 351.044 348.646 351.23 349.988C351.417 351.33 351.206 352.697 350.621 353.92C350.037 355.143 349.106 356.167 347.945 356.864C346.783 357.562 345.442 357.903 344.088 357.845C342.734 357.786 341.428 357.331 340.33 356.535C339.233 355.74 338.394 354.639 337.918 353.371C337.441 352.102 337.348 350.722 337.65 349.401C338.106 347.59 339.261 346.034 340.861 345.072C342.462 344.111 344.378 343.823 346.19 344.271V344.271Z" fill="#FBC02D"/>
</g>
<defs>
<clipPath id="clip0_198_1303">
<rect width="133.95" height="129.58" fill="white" transform="translate(310 312)"/>
</clipPath>
</defs>
</svg>
