<svg width="753" height="753" viewBox="0 0 753 753" fill="none" xmlns="http://www.w3.org/2000/svg">
<g clip-path="url(#clip0_198_1380)">
<path d="M320.07 317.741C412.27 356.591 414.39 189.311 317.13 233.491C246.99 265.351 276.14 356.211 320.07 317.741Z" fill="#F57C00"/>
<path d="M320.98 306.28C391.78 336.12 395.39 206.57 320.71 240.5C266.85 264.96 287.25 335.82 320.98 306.28Z" fill="#FFA000"/>
<path d="M326.05 485.12C261.13 493.61 315.52 396.12 334.59 450.46C508.99 422.35 365.53 604.44 326.05 485.12Z" fill="#F57C00"/>
<path d="M328.34 479.819C278.41 487.939 309.87 404.539 334.26 460.929C464.43 439.949 357.8 568.889 328.34 479.819Z" fill="#FFA000"/>
<path d="M435.86 457.939C460.42 496.289 516.77 445.059 494.25 410.549C471.73 376.039 411.31 419.629 435.86 457.939Z" fill="#F57C00"/>
<path d="M443.63 446.689C461.63 474.789 502.93 437.249 486.43 411.949C469.93 386.649 425.63 418.629 443.63 446.689Z" fill="#FFA000"/>
<path d="M469.9 346.69C454.03 407.02 567.51 384.86 502.55 328.14C480.63 151.38 343.17 318.37 469.9 346.69Z" fill="#F57C00"/>
<path d="M473.44 340.63C470.38 391.22 552.89 379.33 492.71 324.9C484.24 184.77 382.63 320.3 473.44 340.63Z" fill="#FFA000"/>
<path d="M440.63 492.95C453.53 495.16 469.36 480.06 448.63 476.52C427.9 472.98 422.3 489.82 440.63 492.95Z" fill="#F57C00"/>
<path d="M313.81 346.34C322.81 341.94 326.87 324.17 308.73 331.24C293.7 337.09 300.97 352.63 313.81 346.34Z" fill="#F57C00"/>
<path d="M506.54 399.63C506.3 420.57 520.21 419.63 520.39 404.69C520.57 389.75 506.71 385.12 506.54 399.63Z" fill="#F57C00"/>
<path d="M394.88 242.169C405.01 263.269 427.4 255.229 420.43 240.719C413.46 226.209 387.49 226.779 394.88 242.169Z" fill="#F57C00"/>
<path d="M268.157 436.317C287.062 435.114 301.141 414.542 299.604 390.367C298.066 366.193 281.493 347.571 262.588 348.774C243.683 349.976 229.604 370.548 231.142 394.723C232.68 418.897 249.252 437.519 268.157 436.317Z" fill="#F57C00"/>
<path d="M267.685 423.381C282.114 422.463 292.86 406.764 291.687 388.317C290.513 369.869 277.865 355.658 263.435 356.576C249.005 357.494 238.259 373.193 239.433 391.641C240.606 410.088 253.255 424.299 267.685 423.381Z" fill="#FFA000"/>
<path d="M263.474 334.649C267.541 328.321 266.804 320.599 261.829 317.401C256.853 314.203 249.522 316.74 245.455 323.068C241.388 329.396 242.125 337.118 247.1 340.316C252.076 343.514 259.407 340.977 263.474 334.649Z" fill="#F57C00"/>
<path d="M295.63 447.489C293.63 449.549 289.86 449.119 287.16 446.489C284.46 443.859 283.88 440.119 285.86 438.059C287.84 435.999 291.63 436.429 294.33 439.059C297.03 441.689 297.63 445.429 295.63 447.489Z" fill="#F57C00"/>
<path d="M332.589 278.951C350.108 269.216 359.704 253.035 354.023 242.811C348.341 232.586 329.533 232.189 312.013 241.924C294.494 251.659 284.898 267.84 290.58 278.064C296.261 288.289 315.069 288.686 332.589 278.951Z" fill="#FBC02D"/>
<path d="M266.359 387.415C276.072 382.017 280.494 371.431 276.237 363.77C271.98 356.109 260.655 354.273 250.942 359.671C241.229 365.068 236.806 375.654 241.063 383.316C245.32 390.977 256.645 392.812 266.359 387.415Z" fill="#FBC02D"/>
<path d="M460.2 292.19C469.913 286.793 474.336 276.207 470.079 268.545C465.822 260.884 454.496 259.049 444.783 264.446C435.07 269.843 430.647 280.43 434.905 288.091C439.162 295.752 450.487 297.588 460.2 292.19Z" fill="#FBC02D"/>
<path d="M366.1 260.721C368.87 262.851 368.35 268.151 364.95 272.541C361.55 276.931 356.56 278.771 353.8 276.641C351.04 274.511 351.55 269.201 354.95 264.811C358.35 260.421 363.34 258.631 366.1 260.721Z" fill="#FBC02D"/>
</g>
<defs>
<clipPath id="clip0_198_1380">
<rect width="291.8" height="300.09" fill="white" transform="translate(231 226)"/>
</clipPath>
</defs>
</svg>
