<svg width="753" height="753" viewBox="0 0 753 753" fill="none" xmlns="http://www.w3.org/2000/svg">
<g clip-path="url(#clip0_198_1314)">
<path d="M359.5 338.95C359.5 338.95 396.87 323.07 411.36 277C411.36 277 404.08 327.72 415.81 357.3L359.5 338.95Z" fill="#FFCA28"/>
<path d="M421.73 413.961C421.73 413.961 397.15 441.251 393.6 476.141C393.6 476.141 389.54 440.141 364.84 414.501L421.73 413.961Z" fill="#FFCA28"/>
<path d="M415.86 353.01C415.86 353.01 433.74 385.56 480.62 397.01C480.62 397.01 419.93 394.8 399.28 413.67L415.86 353.01Z" fill="#FFCA28"/>
<path d="M355.82 420.58C355.82 420.58 314.51 398.99 273.03 394.46C273.03 394.46 328.03 391.35 348.48 363L355.82 420.58Z" fill="#FFCA28"/>
<path d="M338.16 340.43C320.68 294.58 385.58 272 395.84 324.04C452.68 289.12 482.41 384.94 433.74 385.56C460.02 446.18 418.44 462.56 390.84 444.34C327.95 490.73 271.78 429.34 331.31 388.85C281.12 370.27 296.4 336.36 338.16 340.43Z" fill="#F57C00"/>
<path d="M343.9 345.721C325.46 299.851 381.13 280.371 393.41 331.651C442.29 301.651 464.85 375.591 425.95 384.461C442.36 433.301 402.38 442.611 384.79 423.611C336.13 479.301 287.28 421.811 338.02 387.291C338.02 387.291 305.78 375.351 311.36 359.221C316.94 343.091 343.9 345.721 343.9 345.721Z" fill="#FFA000"/>
<path d="M362.911 377.973C362.911 377.973 354.841 354.673 367.751 347.423C380.661 340.173 390.031 362.983 390.031 362.983C390.031 362.983 416.181 354.413 415.901 378.593C415.621 402.773 365.161 415.653 352.731 402.933C340.301 390.213 362.911 377.973 362.911 377.973Z" fill="#FFF176"/>
<path d="M449.47 344.301C451.63 353.231 447.37 361.921 439.95 363.711C432.53 365.501 424.77 359.711 422.61 350.811C420.45 341.911 424.71 333.201 432.12 331.401C439.53 329.601 447.3 335.381 449.47 344.301Z" fill="#FFCA28"/>
<path d="M368.108 330.959C378.629 329.552 386.209 321.319 385.039 312.572C383.869 303.824 374.391 297.874 363.87 299.281C353.348 300.689 345.768 308.921 346.938 317.669C348.109 326.417 357.586 332.367 368.108 330.959Z" fill="#FFCA28"/>
<path d="M321.117 361.125C323.17 356.231 322.081 351.108 318.684 349.683C315.287 348.258 310.869 351.07 308.816 355.964C306.762 360.859 307.851 365.981 311.248 367.407C314.645 368.832 319.063 366.02 321.117 361.125Z" fill="#FFCA28"/>
<path d="M351.03 329.39C354.03 330.69 355.72 333.39 354.82 335.5C353.92 337.61 350.76 338.2 347.76 336.9C344.76 335.6 343.08 332.9 343.98 330.79C344.88 328.68 348.03 328.08 351.03 329.39Z" fill="#FFCA28"/>
<path d="M350.78 366.331C348.04 372.651 356.28 381.061 356.37 373.281C356.46 365.501 353.62 359.791 350.78 366.331Z" fill="#FFF176"/>
</g>
<defs>
<clipPath id="clip0_198_1314">
<rect width="207.62" height="199.11" fill="white" transform="translate(273 277)"/>
</clipPath>
</defs>
</svg>
