<svg width="38" height="38" viewBox="0 0 38 38" fill="none" xmlns="http://www.w3.org/2000/svg">
<path d="M33.3635 23.7617L30.7901 17.037L21.8488 25.9783L24.1087 35.9021L33.3635 23.7617Z" fill="#FB5A21"/>
<path d="M14.0987 4.49693L20.3735 6.62042L11.4322 15.5617L2.09791 13.8913L14.0987 4.49693Z" fill="#FB5A21"/>
<path d="M12.9001 24.7118L14.8091 22.8028L16.7181 20.8938L37.0804 0.531459C37.0804 0.531459 32.847 -1.17329 24.8225 2.81329C20.2061 5.10672 16.4533 7.80562 12.7683 10.899C10.4003 12.8869 8.22983 15.269 5.99702 17.8086L7.37764 19.1893L6.105 20.4619L7.72326 22.0802L6.45062 23.3528L10.3548 27.257L11.6275 25.9844L12.9001 24.7118Z" fill="#DCDFD9"/>
<path d="M12.9001 24.7118L14.8091 22.8028L16.7181 20.8938L37.0804 0.531459C37.0804 0.531459 38.8677 4.84734 34.9371 12.928C32.676 17.5766 29.9917 21.344 26.9066 25.0372C24.924 27.4106 22.5389 29.5781 19.995 31.8066L18.576 30.3876L17.3034 31.6603L15.6402 29.9971L14.3675 31.2697L10.3548 27.257L11.6275 25.9844L12.9001 24.7118Z" fill="#F9F1F9"/>
<path d="M6.82094 27.6498C7.86488 28.6938 8.58761 29.4165 10.3543 31.1832C12.2986 33.1275 5.23438 37.2667 4.75256 36.7849C4.27075 36.303 0.727143 37.2769 0.727143 37.2769C0.727143 37.2769 1.94196 33.9743 1.21923 33.2515C0.496504 32.5288 5.01715 25.846 6.82094 27.6498Z" fill="#E36018"/>
<path d="M7.1264 27.9553C7.98878 28.8177 8.58582 29.4147 10.0452 30.8741C11.6514 32.4803 6.24198 35.4734 5.84396 35.0754C5.44593 34.6774 2.69047 35.31 2.69047 35.31C2.69047 35.31 3.52215 32.7536 2.92512 32.1566C2.32808 31.5595 5.63631 26.4652 7.1264 27.9553Z" fill="#FFAE44"/>
<path d="M7.59039 28.4193C8.18045 29.0093 8.58895 29.4178 9.5875 30.4164C10.6865 31.5153 7.05897 33.4896 6.78664 33.2172C6.51431 32.9449 4.65871 33.3481 4.65871 33.3481C4.65871 33.3481 5.19804 31.6286 4.78954 31.2201C4.38104 30.8116 6.57086 27.3997 7.59039 28.4193Z" fill="#FCE25E"/>
<path d="M7.20554 24.1067L13.6904 30.5915L10.9393 32.5567L5.43694 27.0543L7.20554 24.1067Z" fill="#5B6575"/>
<path d="M33.581 10.397C31.8445 12.1335 29.0291 12.1335 27.2926 10.397C25.5562 8.66052 25.5562 5.84512 27.2926 4.10864C29.0291 2.37215 31.8445 2.37215 33.581 4.10864C35.3175 5.84512 35.3175 8.66052 33.581 10.397Z" fill="#00D5CC"/>
<path d="M21.9603 12.815L25.4409 12.0855L24.7114 15.5661L9.91644 27.61L21.9603 12.815Z" fill="#FB5A21"/>
</svg>
