<svg width="349" height="328" viewBox="0 0 349 328" fill="none" xmlns="http://www.w3.org/2000/svg">
<g clip-path="url(#clip0_222_1537)">
<g filter="url(#filter0_d_222_1537)">
<path d="M108.291 248.749V159.22H116.447V248.749C116.447 257.233 113.124 264.526 106.478 270.629C99.9085 276.731 91.9792 279.783 82.6907 279.783C73.4021 279.783 65.4351 276.731 58.7897 270.629C52.2197 264.526 48.9348 257.233 48.9348 248.749V0H57.0906V248.749C57.0906 255.075 59.5826 260.507 64.5667 265.047C69.6263 269.512 75.6676 271.745 82.6907 271.745C89.7137 271.745 95.7173 269.512 100.701 265.047C105.761 260.507 108.291 255.075 108.291 248.749ZM124.602 248.749V159.22H132.758V248.749C132.758 261.773 127.85 272.899 118.032 282.127C108.215 291.281 96.4347 295.858 82.6907 295.858C68.9467 295.858 57.1661 291.281 47.3489 282.127C37.5318 272.899 32.6232 261.773 32.6232 248.749V0H40.779V248.749C40.779 259.54 44.8569 268.768 53.0127 276.434C61.244 284.025 71.1366 287.82 82.6907 287.82C94.1692 287.82 104.024 284.025 112.255 276.434C120.487 268.768 124.602 259.54 124.602 248.749ZM140.914 248.749V159.22H149.07V248.749C149.07 260.135 146.087 270.703 140.121 280.452C134.155 290.127 126.075 297.792 115.88 303.448C105.685 309.105 94.6223 311.933 82.6907 311.933C70.7591 311.933 59.6959 309.105 49.5011 303.448C39.3064 297.792 31.2261 290.127 25.2603 280.452C19.2945 270.703 16.3116 260.135 16.3116 248.749V0H24.4674V248.749C24.4674 258.647 27.0727 267.838 32.2833 276.322C37.494 284.806 44.5548 291.541 53.4658 296.527C62.4522 301.439 72.1939 303.895 82.6907 303.895C93.1875 303.895 102.891 301.439 111.802 296.527C120.789 291.541 127.887 284.806 133.098 276.322C138.309 267.838 140.914 258.647 140.914 248.749ZM157.226 248.749V159.22H165.381V248.749C165.381 259.465 163.191 269.736 158.811 279.559C154.431 289.308 148.541 297.718 141.141 304.788C133.74 311.858 124.942 317.477 114.747 321.645C104.553 325.887 93.8671 328.008 82.6907 328.008C71.5142 328.008 60.8286 325.887 50.6339 321.645C40.4391 317.477 31.6415 311.858 24.2408 304.788C16.8402 297.718 10.9499 289.308 6.56994 279.559C2.18998 269.736 0 259.465 0 248.749V0H8.15579V248.749C8.15579 261.549 11.4785 273.419 18.124 284.359C24.845 295.299 33.907 303.969 45.31 310.37C56.7885 316.77 69.2487 319.97 82.6907 319.97C96.1326 319.97 108.555 316.77 119.958 310.37C131.437 303.969 140.499 295.299 147.144 284.359C153.865 273.419 157.226 261.549 157.226 248.749Z" fill="white"/>
<path d="M249.205 244.284H283.754C290.55 244.284 296.327 242.274 301.085 238.255C305.842 234.237 308.221 228.581 308.221 221.287C308.221 215.631 305.729 210.571 300.745 206.105C295.761 201.64 290.097 199.407 283.754 199.407H226.663V319.97H218.507V191.37H283.754C292.438 191.37 300.027 194.384 306.522 200.412C313.092 206.44 316.377 213.399 316.377 221.287C316.377 230.739 313.205 238.293 306.862 243.949C300.518 249.53 292.816 252.321 283.754 252.321H249.205V244.284ZM249.205 260.359H283.754C294.93 260.359 304.521 256.712 312.525 249.419C320.53 242.125 324.533 232.748 324.533 221.287C324.533 211.24 320.455 202.421 312.299 194.831C304.143 187.165 294.628 183.332 283.754 183.332H210.351V319.97H202.196V175.295H283.754C296.894 175.295 308.334 179.909 318.076 189.137C327.818 198.291 332.688 209.008 332.688 221.287C332.688 234.683 327.855 245.884 318.189 254.889C308.599 263.894 297.12 268.396 283.754 268.396H249.205V260.359ZM249.205 276.434H283.754C293.948 276.434 303.388 274.052 312.072 269.289C320.832 264.526 327.818 257.903 333.028 249.419C338.239 240.935 340.844 231.557 340.844 221.287C340.844 211.836 338.239 202.942 333.028 194.607C327.893 186.272 320.908 179.649 312.072 174.737C303.312 169.751 293.873 167.257 283.754 167.257H194.04V319.97H185.884V159.22H283.754C292.363 159.22 300.669 160.894 308.674 164.243C316.754 167.592 323.74 172.095 329.63 177.751C335.52 183.332 340.202 189.956 343.676 197.621C347.225 205.212 349 213.101 349 221.287C349 230.888 347.263 239.707 343.789 247.744C340.316 255.782 335.596 262.48 329.63 267.838C323.664 273.122 316.717 277.215 308.787 280.117C300.934 283.02 292.589 284.471 283.754 284.471H249.205V276.434ZM242.975 319.97H234.819V207.445H283.754C288.209 207.445 292.023 208.822 295.194 211.575C298.442 214.255 300.065 217.492 300.065 221.287C300.065 231.26 294.628 236.246 283.754 236.246H249.205V228.209H283.754C289.191 228.209 291.909 225.901 291.909 221.287C291.909 219.65 291.117 218.273 289.531 217.157C287.945 216.041 286.019 215.482 283.754 215.482H242.975V319.97Z" fill="white"/>
</g>
<g filter="url(#filter1_d_222_1537)">
<path d="M108.898 45.2035V42.6205C110.573 42.6205 111.972 42.1421 113.096 41.1854C114.244 40.2288 114.818 38.9611 114.818 37.3826V1.32741H117.401V37.3826C117.401 39.6547 116.576 41.5322 114.926 43.0151C113.275 44.4741 111.266 45.2035 108.898 45.2035ZM108.898 50.3697V47.7866C112.008 47.7866 114.627 46.7821 116.755 44.773C118.908 42.7401 119.984 40.2766 119.984 37.3826V1.32741H122.567V37.3826C122.567 40.9702 121.24 44.0316 118.585 46.5668C115.954 49.102 112.725 50.3697 108.898 50.3697ZM108.898 55.5358V52.9527C113.443 52.9527 117.281 51.434 120.415 48.3965C123.572 45.359 125.15 41.6877 125.15 37.3826V1.32741H127.733V37.3826C127.733 40.6593 126.896 43.6968 125.222 46.4951C123.572 49.2695 121.3 51.4698 118.406 53.0962C115.512 54.7226 112.343 55.5358 108.898 55.5358ZM108.898 60.7019V58.1188C111.84 58.1188 114.627 57.5687 117.258 56.4685C119.912 55.3684 122.184 53.8974 124.074 52.0558C125.987 50.1903 127.506 47.9779 128.63 45.4188C129.754 42.8596 130.316 40.1809 130.316 37.3826V1.32741H132.899V37.3826C132.899 40.5397 132.266 43.5532 130.998 46.4233C129.754 49.2934 128.056 51.7688 125.904 53.8496C123.775 55.9543 121.228 57.6166 118.262 58.8363C115.296 60.08 112.175 60.7019 108.898 60.7019Z" fill="white"/>
<path d="M173.367 30.0998V1.32741H175.95V30.0998C175.95 32.8264 174.898 35.1703 172.793 37.1315C170.712 39.0927 168.201 40.0733 165.259 40.0733C162.318 40.0733 159.794 39.0927 157.69 37.1315C155.609 35.1703 154.568 32.8264 154.568 30.0998V1.32741H157.151V30.0998C157.151 32.1328 157.941 33.8787 159.519 35.3377C161.122 36.7727 163.035 37.4902 165.259 37.4902C167.484 37.4902 169.385 36.7727 170.964 35.3377C172.566 33.8787 173.367 32.1328 173.367 30.0998ZM178.533 30.0998V1.32741H181.116V30.0998C181.116 34.2853 179.562 37.861 176.453 40.8267C173.343 43.7685 169.612 45.2394 165.259 45.2394C160.906 45.2394 157.175 43.7685 154.066 40.8267C150.957 37.861 149.402 34.2853 149.402 30.0998V1.32741H151.985V30.0998C151.985 33.5678 153.277 36.5335 155.86 38.997C158.467 41.4366 161.6 42.6564 165.259 42.6564C168.895 42.6564 172.016 41.4366 174.623 38.997C177.23 36.5335 178.533 33.5678 178.533 30.0998ZM183.7 30.0998V1.32741H186.283V30.0998C186.283 33.7591 185.338 37.1554 183.448 40.2885C181.559 43.3978 179 45.8613 175.771 47.679C172.542 49.4967 169.038 50.4055 165.259 50.4055C161.48 50.4055 157.977 49.4967 154.748 47.679C151.519 45.8613 148.96 43.3978 147.07 40.2885C145.181 37.1554 144.236 33.7591 144.236 30.0998V1.32741H146.819V30.0998C146.819 33.2808 147.644 36.2346 149.295 38.9611C150.945 41.6877 153.181 43.8522 156.003 45.4547C158.85 47.0332 161.935 47.8225 165.259 47.8225C168.584 47.8225 171.657 47.0332 174.479 45.4547C177.326 43.8522 179.574 41.6877 181.224 38.9611C182.874 36.2346 183.7 33.2808 183.7 30.0998ZM188.866 30.0998V1.32741H191.449V30.0998C191.449 33.5439 190.755 36.8445 189.368 40.0015C187.981 43.1347 186.115 45.8373 183.771 48.1095C181.427 50.3816 178.641 52.1874 175.412 53.5267C172.183 54.89 168.799 55.5716 165.259 55.5716C161.72 55.5716 158.335 54.89 155.107 53.5267C151.878 52.1874 149.091 50.3816 146.747 48.1095C144.404 45.8373 142.538 43.1347 141.151 40.0015C139.764 36.8445 139.07 33.5439 139.07 30.0998V1.32741H141.653V30.0998C141.653 34.2136 142.705 38.0284 144.81 41.5442C146.939 45.06 149.809 47.8464 153.42 49.9033C157.056 51.9601 161.002 52.9886 165.259 52.9886C169.517 52.9886 173.451 51.9601 177.063 49.9033C180.698 47.8464 183.568 45.06 185.673 41.5442C187.801 38.0284 188.866 34.2136 188.866 30.0998Z" fill="white"/>
<path d="M221.692 28.4137H217.602C212.58 28.4137 208.717 27.3972 206.014 25.3642C203.312 23.3073 201.96 20.4851 201.96 16.8975C201.96 13.5491 203.551 10.7627 206.732 8.53845C209.913 6.29023 214.373 5.16612 220.113 5.16612C223.94 5.16612 227.504 5.6923 230.804 6.74465C234.129 7.79701 236.891 9.27988 239.092 11.1933L237.083 12.8077C235.122 11.2052 232.658 9.96152 229.692 9.07658C226.727 8.19165 223.534 7.74918 220.113 7.74918C215.067 7.74918 211.204 8.6102 208.526 10.3322C205.871 12.0543 204.543 14.2427 204.543 16.8975C204.543 19.7676 205.632 21.9799 207.808 23.5345C210.008 25.0652 213.273 25.8306 217.602 25.8306H221.549C226.643 25.8306 230.541 26.859 233.244 28.9159C235.971 30.9489 237.334 33.7591 237.334 37.3467C237.334 40.6951 235.743 43.4935 232.562 45.7417C229.381 47.966 224.921 49.0781 219.181 49.0781C215.354 49.0781 211.778 48.5519 208.454 47.4996C205.153 46.4472 202.403 44.9644 200.202 43.051L202.211 41.4366C204.173 43.039 206.636 44.2827 209.602 45.1677C212.568 46.0526 215.761 46.4951 219.181 46.4951C224.227 46.4951 228.078 45.634 230.733 43.912C233.411 42.19 234.751 40.0015 234.751 37.3467C234.751 34.4767 233.651 32.2763 231.45 30.7456C229.274 29.191 226.021 28.4137 221.692 28.4137ZM221.692 33.5798H217.602C210.953 33.5798 205.823 32.073 202.211 29.0594C198.6 26.0219 196.794 21.968 196.794 16.8975C196.794 14.5775 197.308 12.4011 198.337 10.3681C199.365 8.33515 200.836 6.55332 202.75 5.02262C204.687 3.468 207.15 2.24822 210.14 1.36328C213.13 0.454427 216.454 0 220.113 0C224.73 0 229.047 0.705558 233.065 2.11667C237.083 3.50387 240.431 5.45313 243.11 7.96443L241.029 9.50709C238.59 7.30671 235.54 5.60859 231.881 4.41273C228.221 3.19295 224.299 2.58306 220.113 2.58306C213.656 2.58306 208.585 3.94634 204.902 6.6729C201.219 9.39947 199.377 12.8077 199.377 16.8975C199.377 21.2265 200.956 24.6586 204.113 27.1939C207.27 29.7291 211.766 30.9967 217.602 30.9967H221.549C228.628 30.9967 232.168 33.1134 232.168 37.3467C232.168 39.2601 231.08 40.8386 228.903 42.0823C226.751 43.3021 223.51 43.912 219.181 43.912C216.143 43.912 213.321 43.5652 210.714 42.8716C208.107 42.1541 205.955 41.1376 204.256 39.8222L206.301 38.2436C209.291 40.3005 213.584 41.3289 219.181 41.3289C222.768 41.3289 225.399 40.9582 227.073 40.2168C228.748 39.4754 229.585 38.5187 229.585 37.3467C229.585 35.9834 228.999 35.0148 227.827 34.4408C226.655 33.8668 224.61 33.5798 221.692 33.5798ZM221.692 23.2475H217.602C210.618 23.2475 207.126 21.1309 207.126 16.8975C207.126 14.9841 208.203 13.4176 210.355 12.1978C212.532 10.9541 215.784 10.3322 220.113 10.3322C223.151 10.3322 225.973 10.691 228.58 11.4085C231.187 12.1021 233.34 13.1066 235.038 14.4221L232.993 16.0006C230.003 13.9437 225.71 12.9153 220.113 12.9153C216.526 12.9153 213.895 13.286 212.221 14.0274C210.547 14.7689 209.71 15.7256 209.71 16.8975C209.71 18.2608 210.295 19.2294 211.467 19.8035C212.639 20.3775 214.684 20.6645 217.602 20.6645H221.692C228.341 20.6645 233.471 22.1832 237.083 25.2207C240.694 28.2343 242.5 32.2763 242.5 37.3467C242.5 39.6667 241.986 41.8432 240.957 43.8761C239.929 45.9091 238.446 47.7029 236.509 49.2575C234.595 50.7882 232.144 52.008 229.154 52.9168C226.165 53.8018 222.84 54.2442 219.181 54.2442C214.565 54.2442 210.248 53.5506 206.23 52.1634C202.211 50.7523 198.863 48.7911 196.184 46.2798L198.265 44.7372C200.705 46.9375 203.754 48.6476 207.413 49.8674C211.073 51.0633 214.995 51.6612 219.181 51.6612C225.638 51.6612 230.709 50.2979 234.392 47.5713C238.075 44.8448 239.917 41.4366 239.917 37.3467C239.917 33.0177 238.338 29.5856 235.181 27.0504C232.024 24.5151 227.528 23.2475 221.692 23.2475Z" fill="white"/>
<path d="M257.317 15.6419H259.9V52.9886H257.317V15.6419ZM246.984 3.91046V1.32741H285.73V3.91046H246.984ZM246.984 9.07658V6.49352H285.73V9.07658H246.984ZM246.984 14.2427V11.6596H285.73V14.2427H246.984ZM272.815 15.6419H275.398V52.9886H272.815V15.6419ZM267.649 15.6419H270.232V52.9886H267.649V15.6419ZM262.483 15.6419H265.066V52.9886H262.483V15.6419Z" fill="white"/>
</g>
<g filter="url(#filter2_d_222_1537)">
<path d="M108.898 73.7803H111.481V125.442H108.898V73.7803ZM124.397 73.7803H126.98V112.526H146.03V115.109H126.98V117.692H146.03V120.275H126.98V122.858H146.03V125.442H124.397V73.7803ZM119.231 73.7803H121.814V125.442H119.231V73.7803ZM114.065 73.7803H116.648V125.442H114.065V73.7803Z" fill="white"/>
<path d="M171.466 92.3281C169.457 94.3372 168.452 96.7648 168.452 99.6109C168.452 102.457 169.457 104.897 171.466 106.93C173.499 108.939 175.938 109.943 178.785 109.943C181.631 109.943 184.058 108.939 186.067 106.93C188.1 104.897 189.117 102.457 189.117 99.6109C189.117 96.7648 188.1 94.3372 186.067 92.3281C184.058 90.2952 181.631 89.2787 178.785 89.2787C175.938 89.2787 173.499 90.2952 171.466 92.3281ZM169.636 108.759C167.125 106.224 165.869 103.175 165.869 99.6109C165.869 96.0473 167.125 93.0098 169.636 90.4985C172.171 87.9632 175.221 86.6956 178.785 86.6956C182.348 86.6956 185.386 87.9632 187.897 90.4985C190.432 93.0098 191.7 96.0473 191.7 99.6109C191.7 103.175 190.432 106.224 187.897 108.759C185.386 111.271 182.348 112.526 178.785 112.526C175.221 112.526 172.171 111.271 169.636 108.759ZM167.807 88.6688C164.793 91.7063 163.286 95.3537 163.286 99.6109C163.286 103.868 164.793 107.516 167.807 110.553C170.844 113.591 174.503 115.109 178.785 115.109C183.066 115.109 186.713 113.591 189.727 110.553C192.764 107.516 194.283 103.868 194.283 99.6109C194.283 95.3537 192.764 91.7063 189.727 88.6688C186.713 85.6313 183.066 84.1126 178.785 84.1126C174.503 84.1126 170.844 85.6313 167.807 88.6688ZM163.107 108.688C161.504 105.913 160.703 102.888 160.703 99.6109C160.703 96.3343 161.504 93.3087 163.107 90.5343C164.733 87.7599 166.934 85.5715 169.708 83.9691C172.482 82.3427 175.508 81.5295 178.785 81.5295C182.061 81.5295 185.087 82.3427 187.861 83.9691C190.636 85.5715 192.824 87.7599 194.426 90.5343C196.053 93.3087 196.866 96.3343 196.866 99.6109C196.866 102.888 196.053 105.913 194.426 108.688C192.824 111.462 190.636 113.662 187.861 115.289C185.087 116.891 182.061 117.692 178.785 117.692C175.508 117.692 172.482 116.891 169.708 115.289C166.934 113.662 164.733 111.462 163.107 108.688ZM159.734 91.6106C158.658 94.1458 158.12 96.8126 158.12 99.6109C158.12 102.409 158.658 105.088 159.734 107.647C160.835 110.182 162.306 112.383 164.147 114.248C166.013 116.09 168.213 117.561 170.748 118.661C173.307 119.737 175.986 120.275 178.785 120.275C181.583 120.275 184.25 119.737 186.785 118.661C189.344 117.561 191.544 116.09 193.386 114.248C195.252 112.383 196.722 110.182 197.799 107.647C198.899 105.088 199.449 102.409 199.449 99.6109C199.449 96.8126 198.899 94.1458 197.799 91.6106C196.722 89.0515 195.252 86.8511 193.386 85.0095C191.544 83.1439 189.344 81.673 186.785 80.5967C184.25 79.4965 181.583 78.9464 178.785 78.9464C175.986 78.9464 173.307 79.4965 170.748 80.5967C168.213 81.673 166.013 83.1439 164.147 85.0095C162.306 86.8511 160.835 89.0515 159.734 91.6106ZM157.367 108.652C156.147 105.782 155.537 102.768 155.537 99.6109C155.537 96.4538 156.147 93.4403 157.367 90.5702C158.61 87.7001 160.261 85.2367 162.318 83.1798C164.398 81.099 166.874 79.4487 169.744 78.2289C172.614 76.9852 175.627 76.3634 178.785 76.3634C181.942 76.3634 184.955 76.9852 187.825 78.2289C190.695 79.4487 193.159 81.099 195.216 83.1798C197.296 85.2367 198.947 87.7001 200.167 90.5702C201.41 93.4403 202.032 96.4538 202.032 99.6109C202.032 102.768 201.41 105.782 200.167 108.652C198.947 111.522 197.296 113.997 195.216 116.078C193.159 118.135 190.695 119.785 187.825 121.029C184.955 122.249 181.942 122.858 178.785 122.858C175.627 122.858 172.614 122.249 169.744 121.029C166.874 119.785 164.398 118.135 162.318 116.078C160.261 113.997 158.61 111.522 157.367 108.652ZM154.999 89.6016C153.636 92.7826 152.954 96.119 152.954 99.6109C152.954 103.103 153.636 106.451 154.999 109.656C156.362 112.837 158.192 115.588 160.488 117.908C162.808 120.204 165.558 122.033 168.739 123.397C171.944 124.76 175.293 125.442 178.785 125.442C182.276 125.442 185.613 124.76 188.794 123.397C191.999 122.033 194.749 120.204 197.045 117.908C199.365 115.588 201.207 112.837 202.57 109.656C203.933 106.451 204.615 103.103 204.615 99.6109C204.615 96.119 203.933 92.7826 202.57 89.6016C201.207 86.3967 199.365 83.6462 197.045 81.3501C194.749 79.0302 191.999 77.1885 188.794 75.8252C185.613 74.462 182.276 73.7803 178.785 73.7803C175.293 73.7803 171.944 74.462 168.739 75.8252C165.558 77.1885 162.808 79.0302 160.488 81.3501C158.192 83.6462 156.362 86.3967 154.999 89.6016ZM152.631 110.661C151.124 107.145 150.371 103.462 150.371 99.6109C150.371 95.7602 151.124 92.089 152.631 88.597C154.138 85.0812 156.159 82.0557 158.694 79.5205C161.229 76.9852 164.243 74.9642 167.735 73.4574C171.251 71.9507 174.934 71.1973 178.785 71.1973C182.635 71.1973 186.307 71.9507 189.798 73.4574C193.314 74.9642 196.34 76.9852 198.875 79.5205C201.41 82.0557 203.431 85.0812 204.938 88.597C206.445 92.089 207.198 95.7602 207.198 99.6109C207.198 103.462 206.445 107.145 204.938 110.661C203.431 114.153 201.41 117.166 198.875 119.701C196.34 122.237 193.314 124.258 189.798 125.764C186.307 127.271 182.635 128.025 178.785 128.025C174.934 128.025 171.251 127.271 167.735 125.764C164.243 124.258 161.229 122.237 158.694 119.701C156.159 117.166 154.138 114.153 152.631 110.661Z" fill="white"/>
<path d="M238.123 92.3281C236.114 94.3372 235.11 96.7648 235.11 99.6109C235.11 102.457 236.114 104.897 238.123 106.93C240.156 108.939 242.596 109.943 245.442 109.943C248.288 109.943 250.716 108.939 252.725 106.93C254.758 104.897 255.774 102.457 255.774 99.6109C255.774 96.7648 254.758 94.3372 252.725 92.3281C250.716 90.2952 248.288 89.2787 245.442 89.2787C242.596 89.2787 240.156 90.2952 238.123 92.3281ZM236.293 108.759C233.782 106.224 232.527 103.175 232.527 99.6109C232.527 96.0473 233.782 93.0098 236.293 90.4985C238.829 87.9632 241.878 86.6956 245.442 86.6956C249.005 86.6956 252.043 87.9632 254.554 90.4985C257.09 93.0098 258.357 96.0473 258.357 99.6109C258.357 103.175 257.09 106.224 254.554 108.759C252.043 111.271 249.005 112.526 245.442 112.526C241.878 112.526 238.829 111.271 236.293 108.759ZM234.464 88.6688C231.45 91.7063 229.943 95.3537 229.943 99.6109C229.943 103.868 231.45 107.516 234.464 110.553C237.501 113.591 241.161 115.109 245.442 115.109C249.723 115.109 253.37 113.591 256.384 110.553C259.421 107.516 260.94 103.868 260.94 99.6109C260.94 95.3537 259.421 91.7063 256.384 88.6688C253.37 85.6313 249.723 84.1126 245.442 84.1126C241.161 84.1126 237.501 85.6313 234.464 88.6688ZM229.764 108.688C228.162 105.913 227.36 102.888 227.36 99.6109C227.36 96.3343 228.162 93.3087 229.764 90.5343C231.39 87.7599 233.591 85.5715 236.365 83.9691C239.14 82.3427 242.165 81.5295 245.442 81.5295C248.718 81.5295 251.744 82.3427 254.518 83.9691C257.293 85.5715 259.481 87.7599 261.084 90.5343C262.71 93.3087 263.523 96.3343 263.523 99.6109C263.523 102.888 262.71 105.913 261.084 108.688C259.481 111.462 257.293 113.662 254.518 115.289C251.744 116.891 248.718 117.692 245.442 117.692C242.165 117.692 239.14 116.891 236.365 115.289C233.591 113.662 231.39 111.462 229.764 108.688ZM226.392 91.6106C225.315 94.1458 224.777 96.8126 224.777 99.6109C224.777 102.409 225.315 105.088 226.392 107.647C227.492 110.182 228.963 112.383 230.804 114.248C232.67 116.09 234.87 117.561 237.406 118.661C239.965 119.737 242.644 120.275 245.442 120.275C248.24 120.275 250.907 119.737 253.442 118.661C256.001 117.561 258.202 116.09 260.043 114.248C261.909 112.383 263.38 110.182 264.456 107.647C265.556 105.088 266.106 102.409 266.106 99.6109C266.106 96.8126 265.556 94.1458 264.456 91.6106C263.38 89.0515 261.909 86.8511 260.043 85.0095C258.202 83.1439 256.001 81.673 253.442 80.5967C250.907 79.4965 248.24 78.9464 245.442 78.9464C242.644 78.9464 239.965 79.4965 237.406 80.5967C234.87 81.673 232.67 83.1439 230.804 85.0095C228.963 86.8511 227.492 89.0515 226.392 91.6106ZM224.024 108.652C222.804 105.782 222.194 102.768 222.194 99.6109C222.194 96.4538 222.804 93.4403 224.024 90.5702C225.268 87.7001 226.918 85.2367 228.975 83.1798C231.056 81.099 233.531 79.4487 236.401 78.2289C239.271 76.9852 242.285 76.3634 245.442 76.3634C248.599 76.3634 251.612 76.9852 254.483 78.2289C257.353 79.4487 259.816 81.099 261.873 83.1798C263.954 85.2367 265.604 87.7001 266.824 90.5702C268.068 93.4403 268.689 96.4538 268.689 99.6109C268.689 102.768 268.068 105.782 266.824 108.652C265.604 111.522 263.954 113.997 261.873 116.078C259.816 118.135 257.353 119.785 254.483 121.029C251.612 122.249 248.599 122.858 245.442 122.858C242.285 122.858 239.271 122.249 236.401 121.029C233.531 119.785 231.056 118.135 228.975 116.078C226.918 113.997 225.268 111.522 224.024 108.652ZM221.656 89.6016C220.293 92.7826 219.611 96.119 219.611 99.6109C219.611 103.103 220.293 106.451 221.656 109.656C223.019 112.837 224.849 115.588 227.145 117.908C229.465 120.204 232.216 122.033 235.397 123.397C238.601 124.76 241.95 125.442 245.442 125.442C248.934 125.442 252.27 124.76 255.451 123.397C258.656 122.033 261.407 120.204 263.703 117.908C266.023 115.588 267.864 112.837 269.227 109.656C270.591 106.451 271.272 103.103 271.272 99.6109C271.272 96.119 270.591 92.7826 269.227 89.6016C267.864 86.3967 266.023 83.6462 263.703 81.3501C261.407 79.0302 258.656 77.1885 255.451 75.8252C252.27 74.462 248.934 73.7803 245.442 73.7803C241.95 73.7803 238.601 74.462 235.397 75.8252C232.216 77.1885 229.465 79.0302 227.145 81.3501C224.849 83.6462 223.019 86.3967 221.656 89.6016ZM219.288 110.661C217.782 107.145 217.028 103.462 217.028 99.6109C217.028 95.7602 217.782 92.089 219.288 88.597C220.795 85.0812 222.816 82.0557 225.351 79.5205C227.887 76.9852 230.9 74.9642 234.392 73.4574C237.908 71.9507 241.591 71.1973 245.442 71.1973C249.292 71.1973 252.964 71.9507 256.456 73.4574C259.972 74.9642 262.997 76.9852 265.532 79.5205C268.068 82.0557 270.089 85.0812 271.595 88.597C273.102 92.089 273.855 95.7602 273.855 99.6109C273.855 103.462 273.102 107.145 271.595 110.661C270.089 114.153 268.068 117.166 265.532 119.701C262.997 122.237 259.972 124.258 256.456 125.764C252.964 127.271 249.292 128.025 245.442 128.025C241.591 128.025 237.908 127.271 234.392 125.764C230.9 124.258 227.887 122.237 225.351 119.701C222.816 117.166 220.795 114.153 219.288 110.661Z" fill="white"/>
<path d="M333.947 73.7803H331.077L316.691 99.8262L330.862 125.442H333.732L319.561 99.8262L333.947 73.7803ZM328.171 73.7803H325.301L310.915 99.8262L325.086 125.442H327.956L313.785 99.8262L328.171 73.7803ZM322.395 73.7803H319.525L305.139 99.8262L319.31 125.442H322.18L308.009 99.8262L322.395 73.7803ZM316.619 73.7803H313.749L299.327 99.8262L313.534 125.442H316.404L302.197 99.8262L316.619 73.7803ZM295.166 73.7803H297.749V125.442H295.166V73.7803ZM290 73.7803H292.583V125.442H290V73.7803ZM284.833 73.7803H287.417V125.442H284.833V73.7803ZM279.667 73.7803H282.25V125.442H279.667V73.7803Z" fill="white"/>
</g>
</g>
<defs>
<filter id="filter0_d_222_1537" x="-4" y="0" width="357" height="336.008" filterUnits="userSpaceOnUse" color-interpolation-filters="sRGB">
<feFlood flood-opacity="0" result="BackgroundImageFix"/>
<feColorMatrix in="SourceAlpha" type="matrix" values="0 0 0 0 0 0 0 0 0 0 0 0 0 0 0 0 0 0 127 0" result="hardAlpha"/>
<feOffset dy="4"/>
<feGaussianBlur stdDeviation="2"/>
<feComposite in2="hardAlpha" operator="out"/>
<feColorMatrix type="matrix" values="0 0 0 0 0.266667 0 0 0 0 0.0666667 0 0 0 0 0.54902 0 0 0 1 0"/>
<feBlend mode="normal" in2="BackgroundImageFix" result="effect1_dropShadow_222_1537"/>
<feBlend mode="normal" in="SourceGraphic" in2="effect1_dropShadow_222_1537" result="shape"/>
</filter>
<filter id="filter1_d_222_1537" x="104.898" y="0" width="184.832" height="68.7012" filterUnits="userSpaceOnUse" color-interpolation-filters="sRGB">
<feFlood flood-opacity="0" result="BackgroundImageFix"/>
<feColorMatrix in="SourceAlpha" type="matrix" values="0 0 0 0 0 0 0 0 0 0 0 0 0 0 0 0 0 0 127 0" result="hardAlpha"/>
<feOffset dy="4"/>
<feGaussianBlur stdDeviation="2"/>
<feComposite in2="hardAlpha" operator="out"/>
<feColorMatrix type="matrix" values="0 0 0 0 0.266667 0 0 0 0 0.0666667 0 0 0 0 0.54902 0 0 0 1 0"/>
<feBlend mode="normal" in2="BackgroundImageFix" result="effect1_dropShadow_222_1537"/>
<feBlend mode="normal" in="SourceGraphic" in2="effect1_dropShadow_222_1537" result="shape"/>
</filter>
<filter id="filter2_d_222_1537" x="104.898" y="71.1973" width="233.049" height="64.8281" filterUnits="userSpaceOnUse" color-interpolation-filters="sRGB">
<feFlood flood-opacity="0" result="BackgroundImageFix"/>
<feColorMatrix in="SourceAlpha" type="matrix" values="0 0 0 0 0 0 0 0 0 0 0 0 0 0 0 0 0 0 127 0" result="hardAlpha"/>
<feOffset dy="4"/>
<feGaussianBlur stdDeviation="2"/>
<feComposite in2="hardAlpha" operator="out"/>
<feColorMatrix type="matrix" values="0 0 0 0 0.266667 0 0 0 0 0.0666667 0 0 0 0 0.54902 0 0 0 1 0"/>
<feBlend mode="normal" in2="BackgroundImageFix" result="effect1_dropShadow_222_1537"/>
<feBlend mode="normal" in="SourceGraphic" in2="effect1_dropShadow_222_1537" result="shape"/>
</filter>
<clipPath id="clip0_222_1537">
<rect width="349" height="328" fill="white"/>
</clipPath>
</defs>
</svg>
